<svg width="49" height="28" viewBox="0 0 49 28" fill="none" xmlns="http://www.w3.org/2000/svg">
<path d="M26.9031 2.50282L22.3215 5.15242C22.3318 4.95015 22.3318 4.74749 22.3215 4.54522V3.22042C22.3215 0.853716 20.6655 -0.105382 18.6162 1.07452C17.735 1.6171 16.9798 2.34166 16.4013 3.19972C16.0701 0.225817 13.7379 -0.878183 10.8813 0.757116C7.8177 2.52352 5.3613 6.82912 5.3613 10.3688V12.356C5.35433 13.1538 5.53142 13.9424 5.8788 14.6606L2.07 16.8617C1.46875 17.25 0.967819 17.7749 0.608077 18.3937C0.248335 19.0125 0.0399762 19.7075 0 20.4221C0 21.7331 0.9246 22.2644 2.07 21.6089L26.91 7.25692C27.5112 6.86862 28.0122 6.34368 28.3719 5.72493C28.7317 5.10617 28.94 4.41113 28.98 3.69652C28.9662 2.37862 28.0416 1.84732 26.9031 2.50282Z" fill="#343434"/>
<path d="M47.2788 12.9356L43.8288 14.9366C43.8503 14.7858 43.8619 14.6336 43.8633 14.4812V13.4738C43.8633 11.6936 42.6075 10.9691 41.0619 11.8592C40.3944 12.2666 39.8245 12.8154 39.3921 13.4669C39.1368 11.2175 37.3773 10.3826 35.2521 11.6177C34.0287 12.4062 33.0083 13.4718 32.2734 14.7281C31.5386 15.9844 31.11 17.3961 31.0224 18.8489V20.3531C31.0141 20.9615 31.1463 21.5637 31.4088 22.1126L28.5315 23.7686C28.0779 24.0594 27.6987 24.4524 27.4243 24.9161C27.1499 25.3798 26.988 25.9014 26.9514 26.4389C26.9514 27.4256 27.6414 27.8189 28.5039 27.3359L47.2788 16.5236C47.73 16.2277 48.1055 15.8301 48.3751 15.3628C48.6447 14.8954 48.801 14.3713 48.8313 13.8326C48.8175 12.8459 48.1206 12.4457 47.2788 12.9356Z" fill="#343434"/>
</svg>
